<svg width="149" height="143" viewBox="0 0 149 143" fill="none" xmlns="http://www.w3.org/2000/svg">
<path d="M103.14 32.0235L79.366 77.1197C68.4561 96.0954 100.213 96.8157 140.196 96.8038L63.8628 105.581L103.14 32.0235Z" fill="#3E3636"/>
<path d="M23.9294 36.3771L63.8729 105.574L103.748 32.8201L64.9755 83.7024L23.9294 36.3771Z" fill="#3E3636"/>
<circle cx="65.3222" cy="14.6376" r="8.72452" fill="#39267F"/>
<circle cx="23.1532" cy="36.4486" r="8.72452" fill="#39267F"/>
<circle cx="138.026" cy="97.5205" r="5.81635" fill="#39267F"/>
<circle cx="103.128" cy="30.6323" r="5.81635" fill="#39267F"/>
<circle cx="122.031" cy="66.9848" r="5.81635" fill="#39267F"/>
<circle cx="20.245" cy="90.2499" r="11.6327" fill="#39267F"/>
<path d="M3.74425 135V118.08H10.4403C11.6563 118.08 12.6803 118.28 13.5123 118.68C14.3603 119.064 15.0003 119.64 15.4323 120.408C15.8643 121.16 16.0803 122.08 16.0803 123.168C16.0803 124.224 15.8643 125.136 15.4323 125.904C15.0003 126.672 14.3603 127.256 13.5123 127.656C12.6803 128.056 11.6563 128.256 10.4403 128.256H5.71225V135H3.74425ZM5.71225 126.6H10.2003C11.4963 126.6 12.4723 126.312 13.1283 125.736C13.8003 125.144 14.1363 124.288 14.1363 123.168C14.1363 122.032 13.8003 121.176 13.1283 120.6C12.4723 120.008 11.4963 119.712 10.2003 119.712H5.71225V126.6ZM23.4081 135.216C22.1761 135.216 21.1121 134.976 20.2161 134.496C19.3361 134 18.6481 133.304 18.1521 132.408C17.6721 131.512 17.4321 130.44 17.4321 129.192C17.4321 127.976 17.6721 126.92 18.1521 126.024C18.6321 125.112 19.2881 124.4 20.1201 123.888C20.9681 123.376 21.9441 123.12 23.0481 123.12C24.1041 123.12 25.0081 123.352 25.7601 123.816C26.5121 124.28 27.0881 124.936 27.4881 125.784C27.9041 126.632 28.1121 127.648 28.1121 128.832V129.576H18.9201V128.304H26.8161L26.4321 128.616C26.4321 127.336 26.1441 126.344 25.5681 125.64C25.0081 124.92 24.1841 124.56 23.0961 124.56C22.2801 124.56 21.5841 124.752 21.0081 125.136C20.4481 125.504 20.0241 126.024 19.7361 126.696C19.4481 127.352 19.3041 128.12 19.3041 129V129.144C19.3041 130.12 19.4561 130.944 19.7601 131.616C20.0801 132.288 20.5521 132.8 21.1761 133.152C21.8001 133.488 22.5441 133.656 23.4081 133.656C24.0961 133.656 24.7601 133.552 25.4001 133.344C26.0561 133.12 26.6721 132.76 27.2481 132.264L27.9201 133.632C27.3921 134.112 26.7201 134.496 25.9041 134.784C25.0881 135.072 24.2561 135.216 23.4081 135.216ZM30.9256 135V123.336H32.8216V125.928H32.5576C32.8936 125 33.4376 124.304 34.1896 123.84C34.9576 123.36 35.8376 123.12 36.8296 123.12C37.7576 123.12 38.5256 123.288 39.1336 123.624C39.7576 123.944 40.2216 124.448 40.5256 125.136C40.8296 125.824 40.9816 126.688 40.9816 127.728V135H39.0376V127.848C39.0376 127.128 38.9416 126.536 38.7496 126.072C38.5736 125.608 38.2856 125.264 37.8856 125.04C37.5016 124.816 36.9976 124.704 36.3736 124.704C35.6696 124.704 35.0536 124.856 34.5256 125.16C33.9976 125.464 33.5896 125.888 33.3016 126.432C33.0136 126.976 32.8696 127.616 32.8696 128.352V135H30.9256ZM49.7262 139.536C48.7182 139.536 47.7662 139.4 46.8702 139.128C45.9902 138.872 45.2062 138.48 44.5182 137.952L45.1662 136.536C45.6462 136.872 46.1182 137.144 46.5822 137.352C47.0622 137.576 47.5502 137.736 48.0462 137.832C48.5582 137.928 49.0862 137.976 49.6302 137.976C50.7662 137.976 51.6222 137.672 52.1982 137.064C52.7902 136.456 53.0862 135.576 53.0862 134.424V131.712H53.3262C53.0862 132.64 52.5742 133.376 51.7902 133.92C51.0222 134.464 50.1182 134.736 49.0782 134.736C48.0062 134.736 47.0782 134.496 46.2942 134.016C45.5102 133.52 44.9022 132.832 44.4702 131.952C44.0542 131.072 43.8462 130.056 43.8462 128.904C43.8462 127.752 44.0542 126.744 44.4702 125.88C44.9022 125 45.5102 124.32 46.2942 123.84C47.0782 123.36 48.0062 123.12 49.0782 123.12C50.1342 123.12 51.0462 123.392 51.8142 123.936C52.5822 124.464 53.0782 125.184 53.3022 126.096H53.0862V123.336H54.9822V134.16C54.9822 135.344 54.7822 136.336 54.3822 137.136C53.9982 137.936 53.4142 138.536 52.6302 138.936C51.8462 139.336 50.8782 139.536 49.7262 139.536ZM49.4382 133.152C50.5582 133.152 51.4462 132.768 52.1022 132C52.7582 131.232 53.0862 130.2 53.0862 128.904C53.0862 127.608 52.7582 126.584 52.1022 125.832C51.4462 125.064 50.5582 124.68 49.4382 124.68C48.3342 124.68 47.4542 125.064 46.7982 125.832C46.1422 126.584 45.8142 127.608 45.8142 128.904C45.8142 130.2 46.1422 131.232 46.7982 132C47.4542 132.768 48.3342 133.152 49.4382 133.152ZM62.7567 135.216C61.8127 135.216 61.0287 135.048 60.4047 134.712C59.7967 134.36 59.3327 133.84 59.0127 133.152C58.7087 132.464 58.5567 131.608 58.5567 130.584V123.336H60.5007V130.56C60.5007 131.248 60.5887 131.824 60.7647 132.288C60.9567 132.736 61.2527 133.072 61.6527 133.296C62.0527 133.504 62.5487 133.608 63.1407 133.608C63.8127 133.608 64.3967 133.456 64.8927 133.152C65.3887 132.848 65.7807 132.424 66.0687 131.88C66.3567 131.336 66.5007 130.696 66.5007 129.96V123.336H68.4447V135H66.5487V132.312H66.8607C66.5407 133.256 66.0127 133.976 65.2767 134.472C64.5567 134.968 63.7167 135.216 62.7567 135.216ZM71.8418 120.432V118.248H74.2418V120.432H71.8418ZM72.0818 135V123.336H74.0258V135H72.0818ZM77.6599 135V123.336H79.5559V125.928H79.2919C79.6279 125 80.1719 124.304 80.9239 123.84C81.6919 123.36 82.5719 123.12 83.5639 123.12C84.4919 123.12 85.2599 123.288 85.8679 123.624C86.4919 123.944 86.9559 124.448 87.2599 125.136C87.5639 125.824 87.7159 126.688 87.7159 127.728V135H85.7719V127.848C85.7719 127.128 85.6759 126.536 85.4839 126.072C85.3079 125.608 85.0199 125.264 84.6199 125.04C84.2359 124.816 83.7319 124.704 83.1079 124.704C82.4039 124.704 81.7879 124.856 81.2599 125.16C80.7319 125.464 80.3239 125.888 80.0359 126.432C79.7479 126.976 79.6039 127.616 79.6039 128.352V135H77.6599ZM103.369 135.216C102.313 135.216 101.401 134.944 100.633 134.4C99.8806 133.856 99.3766 133.128 99.1206 132.216H99.3606V135H97.4646V118.08H99.4086V126.048H99.1206C99.3926 125.152 99.9046 124.44 100.657 123.912C101.409 123.384 102.313 123.12 103.369 123.12C104.425 123.12 105.337 123.368 106.105 123.864C106.873 124.344 107.465 125.04 107.881 125.952C108.313 126.848 108.529 127.92 108.529 129.168C108.529 130.4 108.313 131.472 107.881 132.384C107.465 133.28 106.865 133.976 106.081 134.472C105.313 134.968 104.409 135.216 103.369 135.216ZM102.961 133.656C104.065 133.656 104.937 133.272 105.577 132.504C106.233 131.72 106.561 130.608 106.561 129.168C106.561 127.712 106.233 126.6 105.577 125.832C104.937 125.064 104.065 124.68 102.961 124.68C101.873 124.68 101.001 125.064 100.345 125.832C99.6886 126.6 99.3606 127.712 99.3606 129.168C99.3606 130.608 99.6886 131.72 100.345 132.504C101.001 133.272 101.873 133.656 102.961 133.656ZM115.129 135.216C114.329 135.216 113.609 135.064 112.969 134.76C112.345 134.44 111.849 134.008 111.481 133.464C111.113 132.92 110.929 132.312 110.929 131.64C110.929 130.776 111.145 130.096 111.577 129.6C112.025 129.104 112.753 128.752 113.761 128.544C114.785 128.336 116.177 128.232 117.937 128.232H119.017V129.504H117.961C116.985 129.504 116.169 129.536 115.513 129.6C114.857 129.664 114.337 129.776 113.953 129.936C113.569 130.096 113.297 130.304 113.137 130.56C112.977 130.816 112.897 131.136 112.897 131.52C112.897 132.176 113.121 132.712 113.569 133.128C114.033 133.544 114.657 133.752 115.441 133.752C116.081 133.752 116.641 133.6 117.121 133.296C117.617 132.992 118.001 132.576 118.273 132.048C118.561 131.52 118.705 130.912 118.705 130.224V127.488C118.705 126.496 118.505 125.784 118.105 125.352C117.705 124.904 117.049 124.68 116.137 124.68C115.433 124.68 114.753 124.784 114.097 124.992C113.441 125.184 112.769 125.504 112.081 125.952L111.409 124.536C111.825 124.248 112.297 124 112.825 123.792C113.353 123.568 113.905 123.4 114.481 123.288C115.057 123.176 115.609 123.12 116.137 123.12C117.145 123.12 117.977 123.288 118.633 123.624C119.289 123.944 119.777 124.44 120.097 125.112C120.417 125.768 120.577 126.616 120.577 127.656V135H118.753V132.288H118.969C118.841 132.896 118.593 133.416 118.225 133.848C117.873 134.28 117.433 134.616 116.905 134.856C116.377 135.096 115.785 135.216 115.129 135.216ZM124.183 135V123.336H126.079V125.928H125.815C126.151 125 126.695 124.304 127.447 123.84C128.215 123.36 129.095 123.12 130.087 123.12C131.015 123.12 131.783 123.288 132.391 123.624C133.015 123.944 133.479 124.448 133.783 125.136C134.087 125.824 134.239 126.688 134.239 127.728V135H132.295V127.848C132.295 127.128 132.199 126.536 132.007 126.072C131.831 125.608 131.543 125.264 131.143 125.04C130.759 124.816 130.255 124.704 129.631 124.704C128.927 124.704 128.311 124.856 127.783 125.16C127.255 125.464 126.847 125.888 126.559 126.432C126.271 126.976 126.127 127.616 126.127 128.352V135H124.183ZM137.824 135V118.08H139.768V128.52H139.816L145.216 123.336H147.688L141.28 129.48V128.424L148.192 135H145.72L139.816 129.528H139.768V135H137.824Z" fill="black"/>
</svg>
